<svg width="26" height="26" viewBox="0 0 26 26" fill="none" xmlns="http://www.w3.org/2000/svg">
<path fill-rule="evenodd" clip-rule="evenodd" d="M2.16322 7.20455C2.17672 7.20056 2.1902 7.19658 2.20368 7.19259L22.4133 1.21502C22.6447 1.14651 22.8888 1.07423 23.0974 1.03262C23.3083 0.990545 23.6827 0.93359 24.08 1.0796C24.5499 1.25228 24.9185 1.62086 25.0912 2.09077C25.2372 2.4881 25.1802 2.86247 25.1382 3.07338C25.0966 3.28192 25.0243 3.52606 24.9558 3.75745L18.9662 24.0076C18.8848 24.2829 18.8028 24.5606 18.7155 24.7812C18.6337 24.9882 18.4618 25.385 18.07 25.6593C17.6232 25.972 17.0607 26.0632 16.5466 25.9061C16.0958 25.7684 15.8206 25.444 15.6846 25.2723C15.5395 25.0893 15.3835 24.8502 15.2287 24.6131L12.6007 20.589C12.57 20.5418 12.5395 20.4953 12.5095 20.4494C11.9519 19.5968 11.5314 18.9537 11.3421 18.2308C11.1755 17.5946 11.1469 16.9276 11.2581 16.2741C11.3826 15.5424 12.5688 14.0283 13.04 13.1308C12.1425 13.602 10.6284 14.7882 9.89669 14.9127C9.24321 15.0239 8.57622 14.9953 7.94001 14.8287C7.21707 14.6394 6.574 14.2189 5.72137 13.6613C5.67546 13.6312 5.62895 13.6008 5.58179 13.57L1.59249 10.9648C1.58089 10.9573 1.56927 10.9497 1.55765 10.9421C1.32055 10.7873 1.08149 10.6313 0.898458 10.4862C0.726803 10.3501 0.40243 10.075 0.264694 9.62422C0.107597 9.1101 0.198733 8.54762 0.511526 8.10079C0.785771 7.70902 1.18258 7.53712 1.38954 7.45528C1.61021 7.36802 1.88785 7.28595 2.16322 7.20455Z" fill="#776BEB"/>
</svg>
