<svg width="26" height="26" viewBox="0 0 26 26" fill="none" xmlns="http://www.w3.org/2000/svg">
<path fill-rule="evenodd" clip-rule="evenodd" d="M2.77837 0H12.0952C12.8988 0 13.3006 0 13.6802 0.0832942C14.0938 0.174043 14.4881 0.337352 14.8447 0.56565C15.1721 0.775194 15.4562 1.05931 16.0244 1.62753L23.5557 9.15887C24.856 10.4591 25.5062 11.1093 25.7784 11.8472C26.0739 12.6481 26.0739 13.5281 25.7784 14.3289C25.5062 15.0669 24.856 15.717 23.5557 17.0173L17.0173 23.5557C15.717 24.856 15.0669 25.5062 14.3289 25.7784C13.5281 26.0739 12.6481 26.0739 11.8472 25.7784C11.1093 25.5062 10.4592 24.856 9.15889 23.5558L1.62753 16.0244C1.05931 15.4562 0.775193 15.1721 0.56565 14.8447C0.337352 14.4881 0.174043 14.0938 0.0832942 13.6802C0 13.3006 0 12.8988 0 12.0952V2.77837C0 1.85893 0 1.39921 0.164653 1.04205C0.343337 0.654456 0.654456 0.343337 1.04205 0.164653C1.39921 0 1.85893 0 2.77837 0ZM7.76749 9.55984C8.75746 9.55984 9.55998 8.75731 9.55998 7.76734C9.55998 6.77737 8.75746 5.97484 7.76749 5.97484C6.77752 5.97484 5.97499 6.77737 5.97499 7.76734C5.97499 8.75731 6.77752 9.55984 7.76749 9.55984Z" fill="#776BEB"/>
</svg>
