<svg width="12" height="20" viewBox="0 0 12 20" fill="none" xmlns="http://www.w3.org/2000/svg">
<path d="M0.568243 8.6513L8.71349 0.564188C8.89207 0.385416 9.10454 0.24352 9.33864 0.146687C9.57274 0.049854 9.82383 0 10.0774 0C10.331 0 10.5821 0.049854 10.8162 0.146687C11.0503 0.24352 11.2628 0.385416 11.4414 0.564188C11.7992 0.921551 12 1.40497 12 1.90886C12 2.41275 11.7992 2.89617 11.4414 3.25353L4.64086 10.0055L11.4414 16.7575C11.7992 17.1149 12 17.5983 12 18.1022C12 18.6061 11.7992 19.0895 11.4414 19.4468C11.2619 19.6236 11.049 19.7635 10.8149 19.8584C10.5809 19.9533 10.3303 20.0014 10.0774 20C9.82461 20.0014 9.57398 19.9533 9.33993 19.8584C9.10587 19.7635 8.89299 19.6236 8.71349 19.4468L0.568243 11.3597C0.388186 11.1824 0.245272 10.9715 0.147742 10.739C0.0502129 10.5066 0 10.2573 0 10.0055C0 9.75372 0.0502129 9.50442 0.147742 9.272C0.245272 9.03957 0.388186 8.82862 0.568243 8.6513Z" fill="black"/>
</svg>
