<svg width="17" height="20" viewBox="0 0 17 20" fill="none" xmlns="http://www.w3.org/2000/svg">
<path fill-rule="evenodd" clip-rule="evenodd" d="M8.60731 2.91743e-05C9.20703 -0.000256119 9.66017 -0.000471834 10.0972 0.104439C10.4826 0.196982 10.8511 0.34962 11.1891 0.55675C11.5723 0.791563 11.8926 1.11213 12.3164 1.5364L12.3845 1.60446L15.3955 4.61555L15.4636 4.68357C15.8879 5.10743 16.2084 5.42769 16.4432 5.81087C16.6504 6.14888 16.803 6.51738 16.8956 6.90285C17.0005 7.33984 17.0003 7.79298 17 8.3927L16.9999 8.48891V14.3946C17 15.1548 17 15.7823 16.9582 16.2934C16.9148 16.8243 16.8217 17.3123 16.5882 17.7706C16.226 18.4815 15.6481 19.0594 14.9372 19.4216C14.4789 19.6551 13.9909 19.7482 13.46 19.7916C12.9489 19.8333 12.3214 19.8333 11.5612 19.8333H5.43873C4.6785 19.8333 4.05105 19.8333 3.53993 19.7916C3.00906 19.7482 2.52107 19.6551 2.0627 19.4216C1.35186 19.0594 0.77394 18.4815 0.411753 17.7706C0.178202 17.3123 0.0851134 16.8243 0.0417398 16.2934C-2.03514e-05 15.7823 -1.0981e-05 15.1548 3.72776e-07 14.3946V14.3946V14.3946V5.43881V5.4388V5.43879C-1.0981e-05 4.67855 -2.0351e-05 4.05111 0.0417398 3.53999C0.0851134 3.00912 0.178202 2.52113 0.411753 2.06275C0.77394 1.35192 1.35186 0.773998 2.0627 0.411811C2.52107 0.17826 3.00906 0.0851715 3.53993 0.0417978C4.05106 3.71675e-05 4.67851 4.70755e-05 5.43876 5.91223e-05L8.51109 5.95726e-05L8.60731 2.91743e-05ZM4.72221 9.86119C4.16992 9.86119 3.72221 10.3089 3.72221 10.8612C3.72221 11.4135 4.16992 11.8612 4.72221 11.8612H10.3889C10.9411 11.8612 11.3889 11.4135 11.3889 10.8612C11.3889 10.3089 10.9411 9.86119 10.3889 9.86119H4.72221ZM4.72221 13.639C4.16992 13.639 3.72221 14.0867 3.72221 14.639C3.72221 15.1912 4.16992 15.639 4.72221 15.639H12.2777C12.83 15.639 13.2777 15.1912 13.2777 14.639C13.2777 14.0867 12.83 13.639 12.2777 13.639H4.72221Z" fill="#776BEB"/>
</svg>
