<svg width="14" height="17" viewBox="0 0 14 17" fill="none" xmlns="http://www.w3.org/2000/svg">
<path d="M12.1189 6.03103C10.6367 4.43909 9.75581 3.03771 9.27782 2.1424C8.76015 1.17264 8.59051 0.571299 8.58921 0.566514L8.43512 0L7.88478 0.238709C7.82047 0.266591 6.29992 0.940911 5.44793 2.59791C5.02024 3.42976 4.8127 3.89613 4.8127 4.92105C4.8127 7.15789 5.44793 8.05263 5.44793 8.05263C4.8127 8.05263 3.72878 6.4453 3.72878 6.4453L2.87141 5.04106C2.72255 4.79726 2.38122 4.78095 2.21078 5.00949C2.17418 5.05858 1.31238 6.21437 1.15549 6.4453C0.389337 7.57311 -0.0101585 8.88689 0.000196295 10.2446C0.014071 12.0579 0.747379 13.7568 2.06503 15.0284C3.38261 16.2998 5.13523 17 7.00005 17C10.8598 17 14 13.9463 14 10.1929C14 8.83199 13.3144 7.31506 12.1189 6.03103Z" fill="#776BEB"/>
</svg>
