<svg width="18" height="17" viewBox="0 0 18 17" fill="none" xmlns="http://www.w3.org/2000/svg">
<path d="M8.26394 0.120338C8.74196 -0.0401126 9.25804 -0.0401126 9.73606 0.120338C9.9937 0.206816 10.2097 0.343073 10.4128 0.496507C10.6041 0.640977 10.8205 0.829582 11.0692 1.04634L17.7267 6.84799C17.9753 7.06468 18.065 7.41587 17.9514 7.72815C17.8377 8.04043 17.5449 8.24776 17.2174 8.24776H16.8261V13.7658C16.8261 14.15 16.8261 14.4815 16.8059 14.7552C16.7846 15.0437 16.7377 15.3315 16.6104 15.6124C16.3764 16.1285 15.9688 16.5428 15.4612 16.7807C15.185 16.9102 14.9019 16.9579 14.6181 16.9795C14.3489 17 14.0228 17 13.645 17H11.7391C11.5316 17 11.3325 16.9162 11.1857 16.767C11.039 16.6177 10.9565 16.4154 10.9565 16.2043L10.9565 12.7034C10.9565 12.6949 10.9565 12.6865 10.9565 12.6781C10.9565 12.2724 10.9557 12.0079 10.9407 11.805C10.9261 11.6061 10.9011 11.5314 10.8846 11.4951C10.8066 11.3231 10.6708 11.185 10.5016 11.1056C10.4659 11.0889 10.3923 11.0635 10.1967 11.0486C9.99307 11.0331 9.72628 11.0326 9.31304 11.0326H8.68696C8.27372 11.0326 8.00693 11.0331 7.80327 11.0486C7.60766 11.0635 7.53411 11.0889 7.49845 11.1056C7.32922 11.185 7.19339 11.3231 7.11537 11.4951C7.09893 11.5314 7.07393 11.6061 7.05927 11.805C7.044 12.0121 7.04349 12.2833 7.04349 12.7034V16.2043C7.04349 16.6438 6.6931 17 6.26088 17H4.35505C3.97716 17 3.65113 17 3.38192 16.9795C3.09813 16.9579 2.81504 16.9102 2.53883 16.7807C2.03115 16.5428 1.62365 16.1285 1.38961 15.6124C1.26227 15.3315 1.21538 15.0437 1.19411 14.7552C1.17392 14.4815 1.17393 14.15 1.17394 13.7659L1.17395 8.24776H0.782643C0.455142 8.24776 0.162276 8.04043 0.0486498 7.72815C-0.0649764 7.41587 0.0246703 7.06468 0.273326 6.84799L6.93079 1.04634C7.1795 0.829582 7.39592 0.640977 7.58719 0.496507C7.79034 0.343073 8.0063 0.206816 8.26394 0.120338Z" fill="#595569"/>
</svg>
