<svg width="16" height="16" viewBox="0 0 16 16" fill="none" xmlns="http://www.w3.org/2000/svg">
<path fill-rule="evenodd" clip-rule="evenodd" d="M11.6364 6.69091C11.6364 9.42221 9.42221 11.6364 6.69091 11.6364C3.95961 11.6364 1.74545 9.42221 1.74545 6.69091C1.74545 3.95961 3.95961 1.74545 6.69091 1.74545C9.42221 1.74545 11.6364 3.95961 11.6364 6.69091ZM10.7648 11.999C9.63655 12.8662 8.22394 13.3818 6.69091 13.3818C2.99562 13.3818 0 10.3862 0 6.69091C0 2.99562 2.99562 0 6.69091 0C10.3862 0 13.3818 2.99562 13.3818 6.69091C13.3818 8.22394 12.8662 9.63655 11.999 10.7648L15.7444 14.5102C16.0852 14.851 16.0852 15.4036 15.7444 15.7444C15.4036 16.0852 14.851 16.0852 14.5102 15.7444L10.7648 11.999Z" fill="black"/>
</svg>
