<svg width="12" height="20" viewBox="0 0 12 20" fill="none" xmlns="http://www.w3.org/2000/svg">
<path d="M11.4318 8.6513L3.28651 0.564188C3.10793 0.385416 2.89546 0.24352 2.66136 0.146687C2.42726 0.049854 2.17617 0 1.92257 0C1.66897 0 1.41788 0.049854 1.18378 0.146687C0.949682 0.24352 0.737213 0.385416 0.558626 0.564188C0.200829 0.921551 0 1.40497 0 1.90886C0 2.41275 0.200829 2.89617 0.558626 3.25353L7.35914 10.0055L0.558626 16.7575C0.200829 17.1149 0 17.5983 0 18.1022C0 18.6061 0.200829 19.0895 0.558626 19.4468C0.738129 19.6236 0.951012 19.7635 1.18507 19.8584C1.41912 19.9533 1.66975 20.0014 1.92257 20C2.17539 20.0014 2.42602 19.9533 2.66007 19.8584C2.89413 19.7635 3.10701 19.6236 3.28651 19.4468L11.4318 11.3597C11.6118 11.1824 11.7547 10.9715 11.8523 10.739C11.9498 10.5066 12 10.2573 12 10.0055C12 9.75372 11.9498 9.50442 11.8523 9.272C11.7547 9.03957 11.6118 8.82862 11.4318 8.6513Z" fill="black"/>
</svg>
