<svg width="18" height="16" viewBox="0 0 18 16" fill="none" xmlns="http://www.w3.org/2000/svg">
<path fill-rule="evenodd" clip-rule="evenodd" d="M1.36364 0C0.610521 0 0 0.577697 0 1.29032C0 2.00295 0.610521 2.58065 1.36364 2.58065H16.6364C17.3895 2.58065 18 2.00295 18 1.29032C18 0.577697 17.3895 0 16.6364 0H1.36364ZM0 8C0 7.28737 0.610521 6.70968 1.36364 6.70968H16.6364C17.3895 6.70968 18 7.28737 18 8C18 8.71263 17.3895 9.29032 16.6364 9.29032H1.36364C0.610521 9.29032 0 8.71263 0 8ZM0 14.7097C0 13.9971 0.610521 13.4194 1.36364 13.4194H16.6364C17.3895 13.4194 18 13.9971 18 14.7097C18 15.4223 17.3895 16 16.6364 16H1.36364C0.610521 16 0 15.4223 0 14.7097Z" fill="#57FFAE"/>
</svg>
