<svg width="24" height="22" viewBox="0 0 24 22" fill="none" xmlns="http://www.w3.org/2000/svg">
<path fill-rule="evenodd" clip-rule="evenodd" d="M8.4 0C8.4 0 9 0 12 0C15 0 15.6 0 15.6 0H8.4ZM0 3.97222C0 3.12845 0.671573 2.44444 1.5 2.44444H22.5C23.3284 2.44444 24 3.12845 24 3.97222C24 4.81599 23.3284 5.5 22.5 5.5H20.4L19.1693 16.7812C18.968 18.6267 18.8673 19.5494 18.4494 20.2458C18.0812 20.8592 17.5441 21.3488 16.9048 21.6538C16.1792 22 15.2676 22 13.4446 22H9.95545C8.13237 22 7.22082 22 6.49515 21.6538C5.85591 21.3488 5.3188 20.8592 4.95062 20.2458C4.53266 19.5494 4.432 18.6267 4.23068 16.7812L3 5.5H1.5C0.671573 5.5 0 4.81599 0 3.97222Z" fill="#F8D271"/>
</svg>
