<svg width="22" height="20" viewBox="0 0 22 20" fill="none" xmlns="http://www.w3.org/2000/svg">
<path d="M11.9875 19.7078L11.9896 19.7067C13.0665 19.1267 15.5304 17.6822 17.7381 15.5152C19.9356 13.3584 22 10.3646 22 6.69918C22 3.47034 19.8146 0 15.7826 0C13.738 0 12.1179 1.05712 11 2.72578C9.88214 1.05712 8.26198 0 6.21739 0C2.18541 0 0 3.47034 0 6.69918C0 10.3646 2.06445 13.3584 4.26191 15.5152C6.47101 17.6835 8.93663 19.1285 10.0124 19.7078L10.0464 19.7262C10.1885 19.8033 10.3943 19.9151 10.656 19.9675C10.8727 20.0108 11.1273 20.0108 11.344 19.9675C11.6057 19.9151 11.8115 19.8033 11.9535 19.7262L11.9875 19.7078Z" fill="#D1D0DC"/>
</svg>
