<svg width="15" height="14" viewBox="0 0 15 14" fill="none" xmlns="http://www.w3.org/2000/svg">
<path d="M4.40012 10.4004C9.15014 15.1504 12.1502 14.1504 14.1502 12.1504C14.7025 11.5981 14.7025 10.7027 14.1502 10.1504L12.5096 8.50976C11.8968 7.89705 10.9035 7.89705 10.2907 8.50976C9.73435 9.06616 8.92412 9.30992 8.23877 8.92332C7.83632 8.69631 7.36822 8.36845 6.90013 7.90035C6.43204 7.43226 6.10418 6.96417 5.87716 6.56171C5.49056 5.87636 5.73433 5.06614 6.29073 4.50974C6.90344 3.89703 6.90344 2.90363 6.29073 2.29093L4.65012 0.65032C4.09783 0.0980326 3.2024 0.0980323 2.65011 0.65032C0.650103 2.65033 -0.349902 5.65034 4.40012 10.4004Z" fill="black"/>
</svg>
