<svg width="18" height="17" viewBox="0 0 18 17" fill="none" xmlns="http://www.w3.org/2000/svg">
<path d="M7.68076 1.4971C8.10461 0.648395 8.31654 0.224041 8.60426 0.0884668C8.85459 -0.0294889 9.14541 -0.0294889 9.39574 0.0884668C9.68346 0.224041 9.89539 0.648394 10.3192 1.4971L11.7653 4.39264C11.8906 4.64343 11.9532 4.76882 12.0447 4.86615C12.1258 4.95232 12.223 5.02212 12.331 5.07166C12.4529 5.12762 12.5929 5.14773 12.873 5.18795L16.1065 5.65227C17.0543 5.78836 17.5282 5.85641 17.7476 6.08493C17.9384 6.28375 18.0283 6.55708 17.9921 6.8288C17.9506 7.14111 17.6077 7.47142 16.9219 8.13205L14.5821 10.3859C14.3794 10.5811 14.2781 10.6787 14.2127 10.7948C14.1548 10.8976 14.1177 11.0106 14.1034 11.1274C14.0872 11.2593 14.1111 11.3971 14.159 11.6727L14.7113 14.8552C14.8732 15.7881 14.9542 16.2545 14.802 16.5313C14.6697 16.7721 14.4344 16.941 14.1617 16.991C13.8483 17.0485 13.4244 16.8283 12.5767 16.3878L9.68459 14.8853C9.4341 14.7551 9.30886 14.6901 9.17691 14.6645C9.06008 14.6419 8.93992 14.6419 8.82309 14.6645C8.69114 14.6901 8.5659 14.7551 8.31541 14.8853L5.42327 16.3878C4.57555 16.8283 4.1517 17.0485 3.83829 16.991C3.56561 16.941 3.33033 16.7721 3.19797 16.5313C3.04584 16.2545 3.12679 15.7881 3.28869 14.8552L3.84104 11.6727C3.88888 11.3971 3.9128 11.2593 3.89663 11.1274C3.88231 11.0106 3.84518 10.8976 3.78729 10.7948C3.72191 10.6787 3.62059 10.5811 3.41794 10.3859L1.07815 8.13205C0.392331 7.47142 0.0494246 7.14111 0.00785834 6.8288C-0.0283063 6.55708 0.0615647 6.28375 0.25244 6.08493C0.471825 5.85641 0.94571 5.78836 1.89348 5.65227L5.12699 5.18795C5.40705 5.14773 5.54708 5.12762 5.66903 5.07166C5.77701 5.02212 5.87423 4.95232 5.95528 4.86615C6.04682 4.76882 6.10944 4.64343 6.23469 4.39264L7.68076 1.4971Z" fill="#FFCE32"/>
</svg>
