<svg width="17" height="17" viewBox="0 0 17 17" fill="none" xmlns="http://www.w3.org/2000/svg">
<path fill-rule="evenodd" clip-rule="evenodd" d="M1.81663 0H7.9084C8.43383 0 8.69654 0 8.94476 0.0544616C9.2152 0.113798 9.47299 0.220577 9.70617 0.369848C9.9202 0.506857 10.106 0.692623 10.4775 1.06416L15.4018 5.98849C16.252 6.83867 16.6771 7.26377 16.8551 7.74628C17.0483 8.2699 17.0483 8.84527 16.8551 9.3689C16.6771 9.85141 16.252 10.2765 15.4018 11.1267L11.1267 15.4018C10.2765 16.252 9.8514 16.6771 9.3689 16.8551C8.84527 17.0483 8.2699 17.0483 7.74628 16.8551C7.26377 16.6771 6.83868 16.252 5.98851 15.4019L1.06415 10.4775C0.692627 10.106 0.506857 9.9202 0.369848 9.70617C0.220577 9.47299 0.113798 9.2152 0.0544616 8.94476C0 8.69654 0 8.43383 0 7.9084V1.81663C0 1.21546 0 0.914869 0.107658 0.681341C0.224489 0.427913 0.427913 0.224489 0.681341 0.107658C0.914869 0 1.21545 0 1.81663 0ZM5.07874 6.25066C5.72603 6.25066 6.25076 5.72593 6.25076 5.07865C6.25076 4.43136 5.72603 3.90663 5.07874 3.90663C4.43145 3.90663 3.90672 4.43136 3.90672 5.07865C3.90672 5.72593 4.43145 6.25066 5.07874 6.25066Z" fill="#3BDB8E"/>
</svg>
