<svg width="16" height="16" viewBox="0 0 16 16" fill="none" xmlns="http://www.w3.org/2000/svg">
<path fill-rule="evenodd" clip-rule="evenodd" d="M0.999949 1.00005C1.55223 0.44777 2.44765 0.44777 2.99994 1.00005L7.9999 6.00001L12.9999 1.00005C13.5521 0.447769 14.4476 0.44777 14.9998 1.00005C15.5521 1.55233 15.5521 2.44775 14.9998 3.00004L9.99988 8L14.9998 13C15.5521 13.5522 15.5521 14.4477 14.9998 14.9999C14.4476 15.5522 13.5521 15.5522 12.9999 14.9999L7.9999 9.99999L2.99994 14.9999C2.44765 15.5522 1.55223 15.5522 0.999949 14.9999C0.447669 14.4477 0.447668 13.5522 0.999949 13L5.99991 8L0.999949 3.00004C0.447668 2.44776 0.447669 1.55233 0.999949 1.00005Z" fill="#A19BB7"/>
</svg>
