<?xml version="1.0" encoding="utf-8"?>
<!-- Generator: Adobe Illustrator 23.0.5, SVG Export Plug-In . SVG Version: 6.00 Build 0)  -->
<svg version="1.1" id="Слой_1" xmlns="http://www.w3.org/2000/svg" xmlns:xlink="http://www.w3.org/1999/xlink" x="0px" y="0px"
	 viewBox="0 0 648 139" enable-background="new 0 0 648 139" xml:space="preserve">
<g>
	<g>
		<path fill="#26272D" d="M176.4,37.2h29.2c7.7,0,14.7,2.6,20.7,7.9c6.1,5.3,9.1,11.9,9.1,19.7c0,7.9-3,14.5-9.1,19.8
			c-6.1,5.3-13,8-20.7,8h-29.2V37.2z M191.2,50.6v28.6h14.6c4.1,0,7.7-1.4,10.6-4.1c2.9-2.7,4.4-6.1,4.4-10.1s-1.5-7.4-4.4-10.2
			c-2.9-2.8-6.4-4.2-10.6-4.2H191.2z"/>
		<path fill="#26272D" d="M263.2,37.2h21.4l23.5,55.4h-15.6l-3.5-8.1h-30.7l-3.4,8.1h-15.8L263.2,37.2z M272.6,50.4l-8.8,21.3h19.5
			l-8.4-21.3H272.6z"/>
		<path fill="#26272D" d="M315.6,37.2h14.7v55.4h-14.7V37.2z"/>
		<path fill="#26272D" d="M339.7,37.2h14.7v42.1H391v13.3h-51.3V37.2z"/>
		<path fill="#26272D" d="M387.6,37.2h16.9L420.7,65h0.4l15.4-27.8h16.9l-25.7,41.6v13.8h-14.5V78.8L387.6,37.2z"/>
		<path fill="#E20000" d="M509.8,44.1C516,49.6,519,56.6,519,65s-3.1,15.4-9.2,20.8c-6.1,5.5-13.5,8.2-21.9,8.2
			c-8.5,0-15.8-2.7-21.9-8.2c-6.1-5.5-9.2-12.4-9.2-20.8s3.1-15.4,9.2-20.8c6.1-5.5,13.5-8.2,21.9-8.2
			C496.4,35.9,503.7,38.7,509.8,44.1z M476.1,53c-3.1,3-4.7,7-4.7,12c0,4.9,1.6,8.9,4.7,12c3.1,3,7,4.6,11.8,4.6
			c4.7,0,8.6-1.5,11.7-4.6c3.1-3,4.7-7,4.7-12c0-4.9-1.6-8.9-4.7-12c-3.1-3-7-4.6-11.7-4.6C483.1,48.5,479.2,50,476.1,53z"/>
		<path fill="#E20000" d="M528,37.2h32.8c6.7,0,12.3,2.1,16.6,6.2c4.3,4.1,6.5,9.4,6.5,15.9c0,6.5-2.2,11.7-6.5,15.6
			c-4.3,3.9-9.9,5.9-16.6,5.9h-18v11.8H528V37.2z M542.7,50.7v16.7h17.4c2.7,0,4.8-0.7,6.5-2.1c1.6-1.4,2.5-3.4,2.5-6
			c0-2.6-0.8-4.7-2.5-6.3c-1.6-1.6-3.8-2.4-6.5-2.4H542.7z"/>
		<path fill="#E20000" d="M588.9,37.2h57.9v13.2h-21.5v42.2h-14.8V50.5h-21.5V37.2z"/>
	</g>
	<path fill="#26272D" d="M32.7,64.6H4.1V2.3h28.6c10.1,0,18.3,2.9,24.8,8.7c6.4,5.8,9.6,13.3,9.6,22.4c0,9.2-3.2,16.7-9.6,22.5
		C51.1,61.7,42.8,64.6,32.7,64.6z M20.1,16.4v34.1h11.4c6,0,10.7-1.5,14-4.4c3.3-3,5-7.2,5-12.6c0-5.5-1.7-9.7-5-12.6
		c-3.3-3-8-4.4-14-4.4H20.1z"/>
	<path fill="#26272D" d="M132.6,128.7c-6.2,6.3-14,9.4-23.5,9.4c-9.4,0-17.2-3.1-23.5-9.4c-6.2-6.3-9.3-13.9-9.3-22.9
		c0-9,3.1-16.7,9.3-22.9c6.2-6.3,14-9.4,23.5-9.4c9.4,0,17.2,3.1,23.5,9.4c6.2,6.3,9.3,13.9,9.3,22.9
		C141.9,114.8,138.8,122.4,132.6,128.7z M97.4,118.4c3.1,3.3,7.1,5,11.7,5c4.6,0,8.5-1.7,11.6-5c3.1-3.3,4.7-7.5,4.7-12.6
		c0-5.1-1.6-9.3-4.7-12.6c-3.1-3.3-7-5-11.6-5c-4.7,0-8.6,1.7-11.7,5c-3.1,3.3-4.6,7.5-4.6,12.6C92.7,110.9,94.3,115.2,97.4,118.4z"
		/>
	<polygon fill="#E20000" points="76.4,0.8 76.4,16.8 114.4,16.8 76.4,54.8 87.8,66.1 125.7,28.1 125.7,66.1 141.7,66.1 141.7,0.8 	
		"/>
	<g>
		<polygon fill="#E20000" points="63.1,90.4 2.4,90.4 9.2,73.1 56.3,73.1 		"/>
		<rect x="1.2" y="94.9" fill="#E20000" width="63" height="43.5"/>
		<polygon fill="#B50606" points="63.1,90.4 2.4,90.4 9.2,73.1 56.3,73.1 		"/>
	</g>
</g>
</svg>
