<svg width="49" height="48" viewBox="0 0 49 48" fill="none" xmlns="http://www.w3.org/2000/svg">
<circle cx="24.5234" cy="24" r="24" fill="#CBFFE6"/>
<path d="M20.5733 27.0499C27.2231 33.6997 31.423 32.2997 34.2229 29.4998C34.996 28.7266 34.996 27.473 34.2229 26.6999L31.9261 24.4031C31.0683 23.5453 29.6776 23.5453 28.8199 24.4031C28.0409 25.182 26.9067 25.5233 25.9472 24.9821C25.3838 24.6643 24.7285 24.2053 24.0732 23.55C23.4179 22.8947 22.9589 22.2394 22.6411 21.6759C22.0999 20.7165 22.4411 19.5822 23.2201 18.8033C24.0778 17.9455 24.0778 16.5548 23.2201 15.6971L20.9233 13.4003C20.1501 12.6271 18.8966 12.6271 18.1234 13.4003C15.3235 16.2002 13.9235 20.4001 20.5733 27.0499Z" fill="#699580"/>
</svg>
