<svg width="48" height="48" viewBox="0 0 48 48" fill="none" xmlns="http://www.w3.org/2000/svg">
<circle cx="24" cy="24" r="24" fill="#E9E7FF"/>
<path d="M23.5595 13.1512C24.1703 12.9496 24.8298 12.9496 25.4406 13.1512C25.7698 13.2599 26.0457 13.4312 26.3053 13.624C26.5497 13.8056 26.8262 14.0426 27.144 14.3151L35.6508 21.6067C35.9686 21.879 36.0831 22.3204 35.9379 22.7129C35.7927 23.1054 35.4185 23.366 35 23.366H34.5V30.3012C34.5001 30.784 34.5001 31.2006 34.4743 31.5446C34.4471 31.9073 34.3872 32.269 34.2245 32.6219C33.9254 33.2706 33.4047 33.7913 32.756 34.0904C32.4031 34.2531 32.0414 34.313 31.6787 34.3402C31.3347 34.366 30.9181 34.366 30.4353 34.366H28C27.7348 34.366 27.4805 34.2606 27.2929 34.0731C27.1054 33.8855 27 33.6312 27 33.366L27 28.966C27 28.9553 27 28.9447 27 28.9341C27 28.4242 26.999 28.0918 26.9799 27.8368C26.9611 27.5868 26.9292 27.4929 26.9082 27.4473C26.8085 27.2311 26.6349 27.0575 26.4187 26.9578C26.3731 26.9368 26.2792 26.9049 26.0292 26.8861C25.769 26.8666 25.4281 26.866 24.9 26.866H24.1C23.572 26.866 23.2311 26.8666 22.9709 26.8861C22.7209 26.9049 22.627 26.9368 22.5814 26.9578C22.3652 27.0575 22.1916 27.2311 22.0919 27.4473C22.0709 27.4929 22.039 27.5868 22.0202 27.8368C22.0007 28.097 22 28.4379 22 28.966V33.366C22 33.9182 21.5523 34.366 21 34.366H18.5648C18.0819 34.366 17.6654 34.366 17.3214 34.3402C16.9587 34.313 16.597 34.2531 16.2441 34.0904C15.5954 33.7913 15.0747 33.2706 14.7756 32.6219C14.6129 32.269 14.553 31.9073 14.5258 31.5446C14.5 31.2006 14.5 30.7841 14.5 30.3012L14.5 23.366H14C13.5816 23.366 13.2074 23.1054 13.0622 22.7129C12.917 22.3204 13.0315 21.879 13.3493 21.6067L21.856 14.3151C22.1738 14.0426 22.4504 13.8056 22.6948 13.624C22.9544 13.4312 23.2303 13.2599 23.5595 13.1512Z" fill="#9C98C5"/>
</svg>
