<svg width="48" height="48" viewBox="0 0 48 48" fill="none" xmlns="http://www.w3.org/2000/svg">
<circle cx="24" cy="24" r="24" fill="#FFEAB6"/>
<path d="M37.3337 24.0003C37.3337 31.3641 31.3641 37.3337 24.0003 37.3337C16.6365 37.3337 10.667 31.3641 10.667 24.0003C10.667 16.6365 16.6365 10.667 24.0003 10.667C31.3641 10.667 37.3337 16.6365 37.3337 24.0003Z" fill="#AFA077"/>
<path fill-rule="evenodd" clip-rule="evenodd" d="M23.38 16.5586C24.065 16.5586 24.6203 17.1139 24.6203 17.7989V24.0501L28.5282 27.3998C29.0483 27.8456 29.1086 28.6286 28.6628 29.1487C28.217 29.6688 27.434 29.729 26.9139 29.2833L22.5728 25.5623C22.2979 25.3267 22.1396 24.9827 22.1396 24.6206V17.7989C22.1396 17.1139 22.695 16.5586 23.38 16.5586Z" fill="#FFEAB6"/>
</svg>
