<?xml version="1.0" encoding="utf-8"?>
<!-- Generator: Adobe Illustrator 23.0.5, SVG Export Plug-In . SVG Version: 6.00 Build 0)  -->
<svg version="1.1" id="Слой_1" xmlns="http://www.w3.org/2000/svg" xmlns:xlink="http://www.w3.org/1999/xlink" x="0px" y="0px"
	 viewBox="0 0 1000 456.1" enable-background="new 0 0 1000 456.1" xml:space="preserve">
<path d="M29.8,209.3c-7.2-0.7-13.9-1.4-20.9-2.2c0-3.9-0.2-7.5,0-11.1c2.8-40.8,5.5-81.7,8.6-122.5c1.2-15.1,3.7-30,5.2-45.1
	c0.4-4.2,2.5-5.3,6-5.7c13.9-1.5,27.8-3.2,41.8-4.4c27.4-2.4,54.9-4.8,82.3-6.6c41.8-2.8,83.7-4.7,125.6-2.1
	c42.1,2.7,84.2,6,126.2,9.2c12.7,1,25.3,2.6,38,3.8c3.9,0.4,5.7,1.9,6.1,6.1c3.3,33.1,7.2,66.1,10.1,99.3
	c1.9,21.4,2.3,42.9,3.4,64.4c0.2,4.7,0.4,9.5,0.7,14.5c-7,0.7-13.8,1.4-21,2.1c3,75.4-5.9,149.7-14.3,222.8
	c-128.1,21-255.5,21-384.2-0.1c-3.5-35.7-7.5-72.9-10.8-110.1C29.3,284.6,27.4,247.2,29.8,209.3z M405,212.1
	c-113.4,12.2-225.7,12.1-337.9,0.1c-4.4,18.7,4.1,166.6,10.7,187.8c52.4,5.6,104.9,11.5,157.9,11.4c53.1,0,105.7-5.8,158.6-11.6
	C400.8,337.4,407.7,275.5,405,212.1z M424.4,173.1c0-2.8,0.2-5.8,0-8.8c-0.7-11.3-1.4-22.6-2.4-33.8c-2.1-23.6-4.4-47.2-6.8-70.8
	c-0.1-1.1-1.9-2.9-3.1-3c-18.1-1.8-36.1-3.6-54.2-4.9c-26.8-1.9-53.7-4.4-80.6-5c-33.6-0.7-67.2-0.4-100.8,0.8
	c-28.3,1-56.5,3.9-84.8,6.1c-11.6,0.9-23.1,2.2-35.1,3.3c-4.4,38.9-8.2,77.6-9.8,116.2C172.8,187.9,298.4,187.9,424.4,173.1z"/>
<path d="M549.1,110.1c22.6,0.9,44.9-0.1,66.6,3.2c27.1,4.1,45.1,26,48,53.4c1.5,13.8,0.7,27.4-5,40.3c-8.6,19.5-23.7,32.2-44.6,34.8
	c-21.4,2.6-43.1,2.1-65,2.9C549.1,199.4,549.1,155.5,549.1,110.1z M579.2,217.7c9.8-0.5,19.4-0.3,28.7-1.8
	c8.8-1.4,15.4-7.2,19.9-15.1c5.9-10.5,6.7-21.7,4.9-33.3c-1.2-7.7-4.1-14.6-9.6-20.3c-12.6-13.1-28.7-8.7-43.9-9.4
	C579.2,164.6,579.2,190.6,579.2,217.7z"/>
<path d="M738.3,185.7c1.9-13.2-2.9-19.9-15.6-21.5c-9.9-1.2-18.8,1.8-27.5,6.2c-2.2,1.2-4.4,2.5-7,4.1c-2.9-6-5.6-11.8-8.5-17.9
	c9.1-6.4,19-10.1,29.6-11.8c12.9-2.1,25.8-1.6,37.9,3.8c13.2,5.9,19.8,16.7,20.7,30.8c0.6,10.2,0.2,20.4,0.3,30.6
	c0.1,3.7,0.1,7.5,4.8,8.7c0.7,0.2,1.5,1.6,1.5,2.5c0.1,7.5,0.1,14.9,0.1,23c-7.2,0-14.1,0.8-20.6-0.2c-7.8-1.2-9.8-8.1-10.5-13.8
	c-7.1,4.3-13.8,9.7-21.3,12.8c-14.5,6.1-31.5,1.9-40.3-8.5c-12.6-14.9-9.2-35.7,7.6-45.6c14.2-8.3,29.3-8.6,44.8-4.4
	C735.5,184.8,736.7,185.2,738.3,185.7z M739.5,207.2c-0.8-2.1-1.2-5.7-2.6-6.2c-8.8-3-17.9-4.7-26.9-0.4c-5.4,2.6-8.3,7.4-7.7,12.6
	c0.6,5.5,4.6,9.5,10.6,10.8c6.7,1.4,13-0.1,18.7-3.6C736.3,217.4,739.9,213.7,739.5,207.2z"/>
<path d="M902.9,260c4.8,0.5,9.2,1.4,13.6,1.1c2.6-0.2,6-1.5,7.4-3.4c3.9-5.7,6.9-11.5,3.8-19.3c-11.7-29.5-22.8-59.3-34.1-89
	c-0.4-1-0.7-2.1-1.1-3.5c10.1,0,19.8,0,30.1,0c7.5,23.7,15,47.7,22.6,71.7c0.3,0,0.6,0,0.9,0c6.5-23.9,12.9-47.7,19.5-71.8
	c9,0,17.9,0,27.2,0c-0.3,1.2-0.4,2.4-0.8,3.5c-12.1,36.8-24.1,73.6-36.3,110.4c-6.9,20.9-27.4,31.6-48.6,26.1c-3-0.8-4.4-2-4.3-5.5
	C903.2,273.5,902.9,266.6,902.9,260z"/>
<path d="M889.9,218.3c1.2,6.7,2.4,13,3.3,19.4c0.1,1-1,2.8-1.9,3.1c-10.7,4-21.8,6.1-33.2,3.5c-10.8-2.5-17.1-10.6-17.2-22.3
	c-0.2-31.1-0.1-62.1-0.2-93.2c0-7,0-14,0-21.3c9.9,0,19.4,0,29.6,0c0,1.8,0,3.6,0,5.5c0,30.8,0,61.5,0,92.3c0,1.1,0,2.2,0,3.3
	c0.1,9.7,5.1,13.6,14.6,11.3C886.5,219.5,888,218.9,889.9,218.3z"/>
<path d="M819.6,243.6c-9.6,0-19,0-28.7,0c0-32.7,0-65.1,0-97.8c9.6,0,18.9,0,28.7,0C819.6,178.4,819.6,210.9,819.6,243.6z"/>
<path d="M542.2,320.1c0-27.8,17.3-49.1,42.4-53.4c14-2.4,26.2,2.4,36.5,11.7c20.4,18.4,23.5,49.8,7.5,72.1
	c-21.4,29.9-63.8,26.4-80.4-6.7C544.2,335.7,541.9,327.4,542.2,320.1z M591.8,361.9c5.3,0.3,11.7-1.7,17.6-5.5
	c24-15.4,26.4-54.3,4.5-72.5c-17-14.2-40.7-11.1-53.4,7.2c-11.1,15.9-11.6,37.3-1,53.5C566.6,355.4,576.5,361.9,591.8,361.9z"/>
<path d="M666,400.8c-3.7,0-6.3,0-9.4,0c0-35.3,0-70.4,0-105.9c2.6,0,5.2,0,8.2,0c0,4.3,0,8.5,0,13.7c1.4-1.3,2.1-1.8,2.6-2.5
	c16.7-19.3,43.6-16.7,56.3,5.6c9.3,16.3,6.6,37.5-6.3,50.3c-13.2,13.1-33.7,12.5-46.3-1.4c-1.4-1.6-2.8-3.3-5.2-6
	C666,370.9,666,385.7,666,400.8z M666.1,332.5c0,3.2-1.1,7.7,0.2,11.4c5.3,14.6,22.6,24.6,37.9,16.3c10.9-5.9,17.1-18.3,15.1-32.6
	c-1.6-11.7-8-20.4-19.3-24.6c-10.6-4-19.6-0.3-27.7,6.6C665.3,315.6,665.4,323.5,666.1,332.5z"/>
<path d="M779.2,359.6c0.7,2,1.4,4.1,2.2,6.7c-7.5,3.8-15.2,6.1-23.7,3.4c-5.7-1.9-8.8-6.6-8.8-13.3c-0.1-16.2,0-32.5,0-48.7
	c0-1.7,0-3.4,0-5.6c-3.5-0.2-6.6-0.3-10.1-0.5c0-2.2,0-4.3,0-6.9c3.1,0,6.3,0,9.8,0c0-8.7,0-16.9,0-25.5c3.4,0,6.3,0,9.7,0
	c0,8.3,0,16.5,0,25.3c6,0,11.5,0,17.2,0c0,2.5,0,4.5,0,7.2c-5.5,0-11.1,0-17.2,0c0,9.9,0,19.1,0,28.4c0,7,0,14,0,21
	c0.1,8.9,3.6,12,12.6,10.7C773.7,361.4,776.4,360.4,779.2,359.6z"/>
<path d="M820,107.5c0,7.9,0,15.5,0,23.1c0,0.9-0.2,1.8-0.3,3c-9.6,0-19.1,0-28.8,0c0-8.7,0-17.3,0-26.2
	C800.4,107.5,809.9,107.5,820,107.5z"/>
</svg>
