<svg width="30" height="30" viewBox="0 0 30 30" fill="none" xmlns="http://www.w3.org/2000/svg">
<g clip-path="url(#clip0_0_70)">
<path d="M26.5388 9.14723C26.0418 8.16631 24.5948 8.4517 24.1276 9.44719C23.7155 10.3252 23.3334 10.8346 23.3334 10.8346C23.3334 10.8346 21.8572 4.94487 17.2013 0.919242C16.1146 -0.0203077 14.5122 0.766918 13.9818 2.10192C12.9984 4.57715 11.2789 6.5913 9.77794 7.5013C9.548 6.80425 8.80517 5.58893 7.83442 4.50174C6.83112 3.37808 5.3898 4.30115 5.14809 5.78803C4.73211 8.34694 3.5626 10.1255 2.76212 12.479C-1.35534 24.5846 6.87238 29.168 15.1807 29.168C28.0273 29.168 30.7873 17.5314 26.5388 9.14723Z" fill="#4D4D4D"/>
<path d="M25.4445 11.5722C23.585 14.5943 21.062 14.6023 21.062 14.6023C21.062 14.6023 20.4558 8.20214 16.0534 3.33398C14.7692 8.83347 10.4624 9.0145 8.48733 14.2068C7.65424 12.084 8.74992 10.0007 6.66658 7.50065C5.83325 11.2507 4.11976 12.6469 3.42288 17.5919C2.52526 23.97 8.51871 29.1673 14.7278 29.1673C25.4988 29.1673 28.7197 18.7907 25.4445 11.5722Z" fill="#858585"/>
<path d="M14.6077 29.168C8.60436 29.168 2.48911 21.3026 6.05868 13.6689C6.42508 16.9273 8.96122 17.1484 8.96122 17.1484C10.7641 10.8535 14.9442 10.6323 16.4178 6.66797C18.7391 10.6328 19.6524 17.5574 19.6524 17.5574C19.6524 17.5574 22.1266 17.5013 23.8832 15.0013C25.2007 22.918 21.8949 29.168 14.6077 29.168Z" fill="#BEBEBE"/>
<path d="M14.6803 28.334C9.71636 28.334 6.34888 22.554 6.69057 19.6798C6.69057 19.6798 8.61812 21.0533 10.4397 20.0048C10.5096 17.0294 12.1739 13.4844 16.3015 10.834C15.4373 14.3463 18.2696 16.2574 17.7776 21.0533C17.7776 21.0533 19.6148 21.9362 21.2938 19.8075C22.5702 23.0184 20.6194 28.334 14.6803 28.334Z" fill="white"/>
</g>
<defs>
<clipPath id="clip0_0_70">
<rect width="30" height="30" fill="white" transform="translate(0 0.000976562)"/>
</clipPath>
</defs>
</svg>
