<svg width="26" height="23" viewBox="0 0 26 23" fill="none" xmlns="http://www.w3.org/2000/svg">
<path d="M14.1671 22.6639L14.1695 22.6627C15.4422 21.9957 18.3541 20.3345 20.9632 17.8425C23.5602 15.3621 26 11.9193 26 7.70405C26 3.99089 23.4172 0 18.6522 0C16.2358 0 14.3211 1.21569 13 3.13465C11.6789 1.21569 9.76416 0 7.34783 0C2.58275 0 0 3.99089 0 7.70405C0 11.9193 2.4398 15.3621 5.0368 17.8425C7.64756 20.3361 10.5615 21.9978 11.8329 22.6639L11.8731 22.6851C12.0409 22.7738 12.2841 22.9023 12.5934 22.9626C12.8496 23.0125 13.1504 23.0125 13.4066 22.9626C13.7159 22.9023 13.959 22.7738 14.1269 22.6851L14.1671 22.6639Z" fill="#57FFAE"/>
</svg>
