<svg width="28" height="25" viewBox="0 0 28 25" fill="none" xmlns="http://www.w3.org/2000/svg">
<path fill-rule="evenodd" clip-rule="evenodd" d="M4.52176 1.30978C5.18782 0.481921 6.19623 0 7.26244 0H20.7376C21.8038 0 22.8122 0.481922 23.4782 1.30978L27.3707 6.14788C28.2098 7.19073 28.2098 8.67254 27.3707 9.71538L15.7441 24.1665C14.8499 25.2778 13.1501 25.2778 12.2559 24.1665L0.629264 9.71538C-0.209755 8.67253 -0.209754 7.19072 0.629264 6.14788L4.52176 1.30978ZM7.26244 3.17265C7.16551 3.17265 7.07383 3.21646 7.01328 3.29172L3.28024 7.93163L24.7198 7.93163L20.9867 3.29172C20.9262 3.21646 20.8345 3.17265 20.7376 3.17265H7.26244Z" fill="#57FFAE"/>
</svg>
